<svg width="100%" height="100%" viewBox="0 0 134 56" fill="none" xmlns="http://www.w3.org/2000/svg">
<g filter="url(#filter0_dd_555_573)">
<path d="M130.396 10.4L125.98 10.4L116.092 38.288L115.9 38.288L106.348 10.4L104.284 10.4L94.9239 38.432L94.7319 38.432L84.7959 10.4L82.5879 10.4L94.4919 44L97.3239 44L106.204 17.744L106.444 17.744L115.612 44L118.492 44L130.396 10.4Z" fill="currentColor"/>
</g>
<g filter="url(#filter1_dd_555_573)">
<path d="M52.776 35.504L56.04 35.504C56.072 36.048 56.2 36.72 56.424 37.52C56.648 38.288 57.08 39.04 57.72 39.776C58.36 40.512 59.288 41.152 60.504 41.696C61.72 42.208 63.336 42.464 65.352 42.464C67.88 42.464 69.896 41.984 71.4 41.024C72.936 40.064 73.704 38.544 73.704 36.464C73.704 34.8 73.224 33.472 72.264 32.48C71.304 31.488 70.088 30.656 68.616 29.984C67.176 29.28 65.608 28.656 63.912 28.112C62.216 27.568 60.632 26.912 59.16 26.144C57.72 25.376 56.52 24.416 55.56 23.264C54.6 22.112 54.12 20.592 54.12 18.704C54.12 17.264 54.408 15.984 54.984 14.864C55.592 13.744 56.392 12.816 57.384 12.08C58.408 11.344 59.576 10.784 60.888 10.4C62.232 10.016 63.64 9.824 65.112 9.824C66.52 9.824 67.864 10 69.144 10.352C70.456 10.672 71.624 11.168 72.648 11.84C73.672 12.48 74.52 13.28 75.192 14.24C75.864 15.168 76.296 16.224 76.488 17.408L73.224 17.408C72.968 15.52 72.104 14.144 70.632 13.28C69.192 12.384 67.432 11.936 65.352 11.936C64.104 11.936 63 12.096 62.04 12.416C61.08 12.704 60.264 13.104 59.592 13.616C58.952 14.096 58.456 14.672 58.104 15.344C57.784 16.016 57.624 16.736 57.624 17.504C57.624 18.88 58.12 19.984 59.112 20.816C60.104 21.648 61.336 22.384 62.808 23.024C64.312 23.664 65.928 24.272 67.656 24.848C69.416 25.424 71.032 26.144 72.504 27.008C74.008 27.84 75.256 28.896 76.248 30.176C77.24 31.424 77.736 33.04 77.736 35.024C77.736 36.464 77.448 37.776 76.872 38.96C76.296 40.144 75.48 41.152 74.424 41.984C73.368 42.816 72.088 43.456 70.584 43.904C69.112 44.352 67.448 44.576 65.592 44.576C63.768 44.576 62.088 44.368 60.552 43.952C59.016 43.504 57.672 42.896 56.52 42.128C55.4 41.328 54.504 40.368 53.832 39.248C53.192 38.128 52.84 36.88 52.776 35.504Z" fill="currentColor"/>
</g>
<g filter="url(#filter2_dd_555_573)">
<path d="M1.60406 45.6L6.02006 45.6L15.9081 17.712L16.1001 17.712L25.6521 45.6L27.7161 45.6L37.0761 17.568L37.2681 17.568L47.2041 45.6L49.4121 45.6L37.5081 12L34.6761 12L25.7961 38.256L25.5561 38.256L16.3881 12L13.5081 12L1.60406 45.6Z" fill="currentColor"/>
</g>
<defs>
<filter id="filter0_dd_555_573" x="79.5879" y="8.40002" width="53.8081" height="39.6" filterUnits="userSpaceOnUse" color-interpolation-filters="sRGB">
<feFlood flood-opacity="0" result="BackgroundImageFix"/>
<feColorMatrix in="SourceAlpha" type="matrix" values="0 0 0 0 0 0 0 0 0 0 0 0 0 0 0 0 0 0 127 0" result="hardAlpha"/>
<feOffset dy="1"/>
<feGaussianBlur stdDeviation="1"/>
<feColorMatrix type="matrix" values="0 0 0 0 0 0 0 0 0 0 0 0 0 0 0 0 0 0 0.06 0"/>
<feBlend mode="normal" in2="BackgroundImageFix" result="effect1_dropShadow_555_573"/>
<feColorMatrix in="SourceAlpha" type="matrix" values="0 0 0 0 0 0 0 0 0 0 0 0 0 0 0 0 0 0 127 0" result="hardAlpha"/>
<feOffset dy="1"/>
<feGaussianBlur stdDeviation="1.5"/>
<feColorMatrix type="matrix" values="0 0 0 0 0 0 0 0 0 0 0 0 0 0 0 0 0 0 0.1 0"/>
<feBlend mode="normal" in2="effect1_dropShadow_555_573" result="effect2_dropShadow_555_573"/>
<feBlend mode="normal" in="SourceGraphic" in2="effect2_dropShadow_555_573" result="shape"/>
</filter>
<filter id="filter1_dd_555_573" x="49.7759" y="7.82397" width="30.9602" height="40.7521" filterUnits="userSpaceOnUse" color-interpolation-filters="sRGB">
<feFlood flood-opacity="0" result="BackgroundImageFix"/>
<feColorMatrix in="SourceAlpha" type="matrix" values="0 0 0 0 0 0 0 0 0 0 0 0 0 0 0 0 0 0 127 0" result="hardAlpha"/>
<feOffset dy="1"/>
<feGaussianBlur stdDeviation="1"/>
<feColorMatrix type="matrix" values="0 0 0 0 0 0 0 0 0 0 0 0 0 0 0 0 0 0 0.06 0"/>
<feBlend mode="normal" in2="BackgroundImageFix" result="effect1_dropShadow_555_573"/>
<feColorMatrix in="SourceAlpha" type="matrix" values="0 0 0 0 0 0 0 0 0 0 0 0 0 0 0 0 0 0 127 0" result="hardAlpha"/>
<feOffset dy="1"/>
<feGaussianBlur stdDeviation="1.5"/>
<feColorMatrix type="matrix" values="0 0 0 0 0 0 0 0 0 0 0 0 0 0 0 0 0 0 0.1 0"/>
<feBlend mode="normal" in2="effect1_dropShadow_555_573" result="effect2_dropShadow_555_573"/>
<feBlend mode="normal" in="SourceGraphic" in2="effect2_dropShadow_555_573" result="shape"/>
</filter>
<filter id="filter2_dd_555_573" x="-1.396" y="10" width="53.8081" height="39.6" filterUnits="userSpaceOnUse" color-interpolation-filters="sRGB">
<feFlood flood-opacity="0" result="BackgroundImageFix"/>
<feColorMatrix in="SourceAlpha" type="matrix" values="0 0 0 0 0 0 0 0 0 0 0 0 0 0 0 0 0 0 127 0" result="hardAlpha"/>
<feOffset dy="1"/>
<feGaussianBlur stdDeviation="1"/>
<feColorMatrix type="matrix" values="0 0 0 0 0 0 0 0 0 0 0 0 0 0 0 0 0 0 0.06 0"/>
<feBlend mode="normal" in2="BackgroundImageFix" result="effect1_dropShadow_555_573"/>
<feColorMatrix in="SourceAlpha" type="matrix" values="0 0 0 0 0 0 0 0 0 0 0 0 0 0 0 0 0 0 127 0" result="hardAlpha"/>
<feOffset dy="1"/>
<feGaussianBlur stdDeviation="1.5"/>
<feColorMatrix type="matrix" values="0 0 0 0 0 0 0 0 0 0 0 0 0 0 0 0 0 0 0.1 0"/>
<feBlend mode="normal" in2="effect1_dropShadow_555_573" result="effect2_dropShadow_555_573"/>
<feBlend mode="normal" in="SourceGraphic" in2="effect2_dropShadow_555_573" result="shape"/>
</filter>
</defs>
</svg>
